<?xml version="1.0"?>
<svg xmlns:rdf="http://www.w3.org/1999/02/22-rdf-syntax-ns#" xmlns="http://www.w3.org/2000/svg" xmlns:cc="http://creativecommons.org/ns#" xmlns:dc="http://purl.org/dc/elements/1.1/" id="svg2" viewBox="0 0 318.31 522.25" version="1.1">
  <title id="title3441">Sapin (02) - Xmas</title>
  <g id="layer1" transform="translate(-100.42 -50.062)">
    <g id="g4299">
      <g id="g5690">
        <path id="path5610" d="m252.2 456.3h21l8 95h-37l8-95z" fill="#c17d11"/>
        <path id="path5584" d="m194.12 566.3 50-15h37l50 15v5h-137v-5z" fill="#c17d11"/>
        <path id="rect5541" style="block-progression:tb;color:#000000;text-transform:none;text-indent:0" d="m251.28 455.31-0.0625 0.90625-8 95-0.0937 1.0938h39.156l-0.0937-1.0938-8-95-0.0625-0.90625h-22.844zm1.8125 2h19.219l7.8125 93h-34.844l7.8125-93z"/>
        <path id="path5636" d="m197.35 316.48-93.155 151.99 28.192-7.3543 18.386 17.16 25.74-20.837 21.122 29.343 15.65-23.214 23.425 20.106 29.281-21.332 17.16 19.612 26.174-21.691 27.758 29.046 30.449-26.966 22.063 24.514 2.4514-22.063 23.289 4.3081-87.026-152.62h-130.96z" fill="#73d216"/>
        <path id="path4767" style="block-progression:tb;color:#000000;text-transform:none;text-indent:0" d="m196.36 314.73-0.5 0.84375-93.156 152-2.2812 3.6875 4.2188-1.0938 27.25-7.0938 17.688 16.5 1.125 1.0312 1.1562-0.96875 24.281-19.656 20.062 27.844 1.4688 2.0312 1.4062-2.0938 14.531-21.562 21.969 18.812 1.0312 0.90625 1.125-0.8125 27.969-20.406 16.125 18.406 1.125 1.2812 1.3125-1.0625 24.906-20.656 26.656 27.844 1.1562 1.2188 1.25-1.0938 29.188-25.812 20.875 23.219 2.5938 2.9062 0.4375-3.9062 2.25-20.188 21.438 3.9688 3.7188 0.6875-1.875-3.2812-87.031-152.59-0.5-0.90625h-132.97zm1.9688 3.5h128.97l84.656 148.47-19.594-3.625-1.8438-0.34375-0.21875 1.875-2 18.188-19.469-21.625-1.1562-1.2812-1.3125 1.1562-29.156 25.844-26.625-27.812-1.125-1.1875-1.25 1.0312-24.875 20.625-16.031-18.344-1.0312-1.2188-1.3125 0.96875-28.156 20.5-22.375-19.188-1.5-1.2812-1.0938 1.625-14.25 21.125-19.656-27.312-1.0625-1.5-1.4375 1.1562-24.594 19.906-17.25-16.125-0.6875-0.65625-0.9375 0.21875-24.031 6.2812 90.406-147.47z"/>
        <path id="path4765-1" d="m224.32 222.55-66.189 114.77 24.514-11.032 30.643 19.612 30.643-20.837 35.546 30.643 22.063-24.514 19.612 13.483 25.74-20.837 17.16 12.257-66.189-113.54h-73.543z" fill="#73d216"/>
        <path id="path4765" style="block-progression:tb;color:#000000;text-transform:none;text-indent:0" d="m223.3 220.82-0.5 0.875-66.188 114.75-2.7188 4.6875 4.9688-2.2188 23.656-10.656 29.812 19.125 1 0.625 0.9375-0.65625 29.562-20.094 34.5 29.781 1.3125 1.125 1.125-1.2812 21.031-23.375 18.375 12.625 1.0625 0.71875 1-0.8125 24.719-20 16.062 11.469 2.5312-2.2812-66.188-113.56-0.5-0.84375h-75.562zm2.0312 3.5h71.531l61.594 105.62-10.562-7.5312-1.0625-0.78125-1.0312 0.84375-24.719 20-18.562-12.719-1.25-0.875-1.0312 1.1562-20.906 23.219-34.25-29.531-1.0312-0.875-1.0938 0.78125-29.688 20.156-29.688-18.969-0.78125-0.5-0.875 0.375-19.594 8.8125 63-109.19z"/>
        <path id="path4763-7" d="m261.09 113.01-71.092 121.35 24.514-8.5801 19.612 17.16 28.192-20.837 25.74 26.966 22.063-31.869 22.063 14.709-71.092-118.9z" fill="#73d216"/>
        <path id="path4763" style="block-progression:tb;color:#000000;text-transform:none;text-indent:0" d="m261.08 109.57-1.5 2.5625-71.094 121.34-2.4062 4.125 4.5-1.5938 23.562-8.2188 18.844 16.469 1.0312 0.9375 1.1562-0.84375 26.938-19.906 24.688 25.844 1.4688 1.5312 1.2188-1.75 21.094-30.469 20.625 13.75 2.4688-2.3438-71.094-118.88-1.5-2.5625zm0.0312 6.9062 65.562 109.66-15.594-10.375-1.4062-0.96875-1 1.4062-20.844 30.094-24.25-25.406-1.0625-1.0938-1.25 0.90625-27.062 20-18.531-16.219-0.78125-0.6875-0.96875 0.34375-19.969 6.9688 67.156-114.62z"/>
        <path id="path5543" style="block-progression:tb;color:#000000;text-transform:none;text-indent:0" d="m244.06 550.31-0.15625 0.0312-50 15-0.71875 0.21875v6.75h139v-6.75l-0.6875-0.21875-50-15-0.15625-0.0312h-37.281zm0.21875 2h36.844l49.062 14.719v3.2812h-135v-3.2812l49.094-14.719z"/>
      </g>
      <path id="path2826-1" d="m291.06 130.67-30.371-17.017-27.004 21.802 14.833-34.142-31.552-15.287 32.755 0.27371 3.1169-35.756 11.834 35.135 30.573-5.7473-25.756 20.692 21.572 30.048z" fill="#fce94f"/>
      <path id="path2826" style="block-progression:tb;color:#000000;text-transform:none;text-indent:0" d="m254.25 50.062-2.9062 0.34375-3 34.406-31.375-0.28125-0.65625 2.8438 30.281 14.656-14.281 32.812 2.3125 1.7812 26.219-21.188 29.5 16.531 1.9375-2.1875-20.75-28.875 24.656-19.812-1.2188-2.625-29.281 5.5l-11.43-33.901zm-0.53125 7.8125 9.5312 28.281 0.40625 1.25 1.2812-0.25 24.688-4.6562-21.062 16.969-1.125 0.875 0.84375 1.1562 17.656 24.562-24.5-13.719-0.90625-0.5-0.78125 0.65625-22.25 17.938 12.406-28.531 0.5625-1.3125-1.2812-0.625-25.562-12.375 26.094 0.21875h1.375l0.125-1.375 2.5-28.562z"/>
      <path id="path3603-5" d="m127.79 271.06c0 7.9896-6.4768 14.466-14.466 14.466-7.9896 0-14.466-6.4768-14.466-14.466 0-7.9896 6.4768-14.466 14.466-14.466 7.9896 0 14.466 6.4768 14.466 14.466z" fill="#ef2929" transform="translate(44.521 165.8)"/>
      <path id="path3603" style="block-progression:tb;color:#000000;text-transform:none;text-indent:0" d="m157.83 420.89c-8.8002 0-15.969 7.1685-15.969 15.969 0 8.8002 7.1685 15.969 15.969 15.969 8.8002 0 15.969-7.1685 15.969-15.969 0-8.8002-7.1685-15.969-15.969-15.969zm0 3c7.1789 0 12.969 5.7898 12.969 12.969 0 7.1789-5.7898 12.969-12.969 12.969-7.1789 0-12.969-5.7898-12.969-12.969 0-7.1789 5.7898-12.969 12.969-12.969z"/>
      <path id="path3603-1-1" d="m127.79 271.06c0 7.9896-6.4768 14.466-14.466 14.466-7.9896 0-14.466-6.4768-14.466-14.466 0-7.9896 6.4768-14.466 14.466-14.466 7.9896 0 14.466 6.4768 14.466 14.466z" fill="#fce94f" transform="translate(112.24 108.86)"/>
      <path id="path3603-1" style="block-progression:tb;color:#000000;text-transform:none;text-indent:0" d="m225.55 363.96c-8.8002 0-15.969 7.1685-15.969 15.969 0 8.8002 7.1685 15.969 15.969 15.969 8.8002 0 15.969-7.1685 15.969-15.969 0-8.8002-7.1685-15.969-15.969-15.969zm0 3c7.1789 0 12.969 5.7898 12.969 12.969 0 7.1789-5.7898 12.969-12.969 12.969-7.1789 0-12.969-5.7898-12.969-12.969 0-7.1789 5.7898-12.969 12.969-12.969z"/>
      <path id="path3603-4-0-7" d="m127.79 271.06c0 7.9896-6.4768 14.466-14.466 14.466-7.9896 0-14.466-6.4768-14.466-14.466 0-7.9896 6.4768-14.466 14.466-14.466 7.9896 0 14.466 6.4768 14.466 14.466z" fill="#ad7fa8" transform="translate(164.91 163.85)"/>
      <path id="path3603-4-0" style="block-progression:tb;color:#000000;text-transform:none;text-indent:0" d="m278.22 418.94c-8.8002 0-15.969 7.1685-15.969 15.969 0 8.8002 7.1685 15.969 15.969 15.969 8.8002 0 15.969-7.1685 15.969-15.969 0-8.8002-7.1685-15.969-15.969-15.969zm0 3c7.1789 0 12.969 5.7898 12.969 12.969 0 7.1789-5.7898 12.969-12.969 12.969-7.1789 0-12.969-5.7898-12.969-12.969 0-7.1789 5.7898-12.969 12.969-12.969z"/>
      <path id="path3941-8" d="m166.06 368.37-11.721 1.0656-10.229 14.492 3.1966 13.639 18.754 9.1637 29.622-2.5573 40.278 18.967 47.95-15.131 36.634 10.567 41.625-7.4544 13.592-20.375-0.63933-11.721-6.6064-10.229-10.869-1.918 9.9194 17.624-13.745 17.01-29.33 5.1512-40.794-11.654-49.015 17.049-38.786-19.606-25.573 2.5573-15.344-9.3768 11.082-17.262z" fill="#fcaf3e"/>
      <path id="path3603-1-9-6" d="m127.79 271.06c0 7.9896-6.4768 14.466-14.466 14.466-7.9896 0-14.466-6.4768-14.466-14.466 0-7.9896 6.4768-14.466 14.466-14.466 7.9896 0 14.466 6.4768 14.466 14.466z" fill="#ef2929" transform="translate(210.5 103.53)"/>
      <path id="path3603-1-9" style="block-progression:tb;color:#000000;text-transform:none;text-indent:0" d="m323.81 358.62c-8.8002 0-15.969 7.1685-15.969 15.969 0 8.8002 7.1685 15.969 15.969 15.969 8.8002 0 15.969-7.1685 15.969-15.969 0-8.8002-7.1685-15.969-15.969-15.969zm0 3c7.1789 0 12.969 5.7898 12.969 12.969 0 7.1789-5.7898 12.969-12.969 12.969-7.1789 0-12.969-5.7898-12.969-12.969 0-7.1789 5.7898-12.969 12.969-12.969z"/>
      <path id="path3603-1-9-4-2" d="m127.79 271.06c0 7.9896-6.4768 14.466-14.466 14.466-7.9896 0-14.466-6.4768-14.466-14.466 0-7.9896 6.4768-14.466 14.466-14.466 7.9896 0 14.466 6.4768 14.466 14.466z" fill="#ad7fa8" transform="translate(206.66 43.01)"/>
      <path id="path3603-1-9-4" style="block-progression:tb;color:#000000;text-transform:none;text-indent:0" d="m319.97 298.1c-8.8002 0-15.969 7.1685-15.969 15.969 0 8.8002 7.1685 15.969 15.969 15.969 8.8002 0 15.969-7.1685 15.969-15.969 0-8.8002-7.1685-15.969-15.969-15.969zm0 3c7.1789 0 12.969 5.7898 12.969 12.969 0 7.1789-5.7898 12.969-12.969 12.969-7.1789 0-12.969-5.7898-12.969-12.969 0-7.1789 5.7898-12.969 12.969-12.969z"/>
      <path id="path3603-1-9-4-1-2" d="m127.79 271.06c0 7.9896-6.4768 14.466-14.466 14.466-7.9896 0-14.466-6.4768-14.466-14.466 0-7.9896 6.4768-14.466 14.466-14.466 7.9896 0 14.466 6.4768 14.466 14.466z" fill="#fce94f" transform="translate(146.7 -12.069)"/>
      <path id="path3603-1-9-4-1" style="block-progression:tb;color:#000000;text-transform:none;text-indent:0" d="m260.01 243.03c-8.8002 0-15.969 7.1685-15.969 15.969 0 8.8002 7.1685 15.969 15.969 15.969 8.8002 0 15.969-7.1685 15.969-15.969 0-8.8002-7.1685-15.969-15.969-15.969zm0 3c7.1789 0 12.969 5.7898 12.969 12.969 0 7.1789-5.7898 12.969-12.969 12.969-7.1789 0-12.969-5.7898-12.969-12.969 0-7.1789 5.7898-12.969 12.969-12.969z"/>
      <path id="path3941" style="block-progression:tb;color:#000000;text-transform:none;text-indent:0" d="m355.73 365.51 1.0312 1.8438 9.625 17.062-13.125 16.188-28.719 5.0312-40.562-11.594-0.3125-0.0937-0.3125 0.125-48.625 16.906-38.375-19.406-0.28125-0.15625-0.28125 0.0312-25.281 2.5312-14.156-8.6562 10.531-16.406 1.125-1.7188-2.0312 0.1875-11.75 1.0625-0.4375 0.0312-0.28125 0.375-10.219 14.5-0.25 0.375 0.0937 0.4375 3.1875 13.625 0.125 0.46875 0.40625 0.21875 18.75 9.1562 0.25 0.125 0.28125-0.0312 29.375-2.5312 40.031 18.844 0.34375 0.15625 0.375-0.0937 47.625-15.062 36.375 10.5 0.21875 0.0625 0.25-0.0312 41.625-7.4688 0.40625-0.0625 0.25-0.375 13.562-20.375 0.1875-0.28125v-0.3125l-0.65625-11.719v-0.28125l-0.15625-0.21875-6.5938-10.219-0.25-0.375-0.40625-0.0625-10.875-1.9375-2.0938-0.375zm3.8125 2.7188 8.3438 1.5 6.25 9.625 0.59375 11.094-13.156 19.75-40.938 7.3438-36.469-10.5-0.28125-0.0625-0.28125 0.0625-47.562 15.031-39.938-18.812-0.25-0.0937h-0.25l-29.375 2.5312-18.062-8.8125-3-12.75 9.7188-13.75 9.2188-0.84375-9.9688 15.562-0.5625 0.84375 0.875 0.53125 15.344 9.375 0.28125 0.1875 0.34375-0.0312 25.281-2.5312 38.531 19.469 0.375 0.1875 0.40625-0.125 48.688-16.938 40.5 11.562 0.21875 0.0625 0.25-0.0625 29.312-5.125 0.375-0.0937 0.25-0.28125 13.719-17 0.4375-0.53125-0.34375-0.59375-8.875-15.781z"/>
      <path id="path3939-3" d="m203.57 259.47-17.475 10.016-2.9835 13 16.196 11.082 27.588-4.1115 39.203 14.496 39.124-15.779 26.639 4.116 11.721-10.016-6.6064-11.508-14.705-6.6064 9.9796 16.81-28.52-3.227-38.485 14.511-36.881-13.293-26.439 4.3376-8.7224-5.754 10.365-18.073z" fill="#fcaf3e"/>
      <path id="path3939" style="block-progression:tb;color:#000000;text-transform:none;text-indent:0" d="m206.27 256.76-3.1875 1.8438-17.469 10-0.40625 0.21875-0.0937 0.4375-2.9688 13-0.15625 0.65625 0.5625 0.40625 16.188 11.062 0.34375 0.21875 0.375-0.0312 27.344-4.0938 38.938 14.406 0.375 0.125 0.375-0.125 38.875-15.688 26.344 4.0938 0.46875 0.0625 0.34375-0.3125 11.719-10 0.625-0.53125-0.40625-0.75-6.625-11.5-0.15625-0.28125-0.28125-0.125-14.719-6.5938-2.875-1.3125 1.625 2.7188 8.9375 15.094-26.531-3-0.21875-0.0312-0.21875 0.0625-38.156 14.406-36.531-13.188-0.25-0.0937-0.25 0.0625-26 4.2812-7.6562-5.0312 9.875-17.25 1.8438-3.2188zm-5.375 5.4062-8.5625 14.875-0.46875 0.8125 0.78125 0.53125 8.7188 5.75 0.34375 0.21875 0.375-0.0625 26.156-4.3125 36.656 13.219 0.375 0.125 0.34375-0.125 38.219-14.438 28.312 3.1875 2 0.25-1.0312-1.75-8.3438-14.062 11.5 5.125 6.0312 10.531-10.719 9.1875-26.219-4.0312-0.25-0.0625-0.25 0.125-38.781 15.625-38.844-14.375-0.25-0.0937-0.25 0.0625-27.188 4.0312-15.312-10.469 2.75-11.906 13.906-7.9688z"/>
      <path id="path3603-1-9-2-6" d="m127.79 271.06c0 7.9896-6.4768 14.466-14.466 14.466-7.9896 0-14.466-6.4768-14.466-14.466 0-7.9896 6.4768-14.466 14.466-14.466 7.9896 0 14.466 6.4768 14.466 14.466z" fill="#729fcf" transform="translate(236.87 176.79)"/>
      <path id="path3603-1-9-2" style="block-progression:tb;color:#000000;text-transform:none;text-indent:0" d="m350.18 431.89c-8.8002 0-15.969 7.1685-15.969 15.969 0 8.8002 7.1685 15.969 15.969 15.969 8.8002 0 15.969-7.1685 15.969-15.969 0-8.8002-7.1685-15.969-15.969-15.969zm0 3c7.1789 0 12.969 5.7898 12.969 12.969 0 7.1789-5.7898 12.969-12.969 12.969-7.1789 0-12.969-5.7898-12.969-12.969 0-7.1789 5.7898-12.969 12.969-12.969z"/>
      <path id="path3937-4" d="m228.29 169.11-13.639 2.5573-5.9671 16.196 18.603 10.733 32.543-5.5667 28.983 5.5667 18.754-10.733 1.7049-15.344-17.101-7.9216 4.3139 17.298-19.206 6.4664-55.809-1.3518-1.2572-5.1619 8.0768-12.739z" fill="#fcaf3e"/>
      <path id="path3937" style="block-progression:tb;color:#000000;text-transform:none;text-indent:0" d="m290.7 162.82 0.5 2.0312 4.0938 16.375-18.156 6.125-54.875-1.3125-1-4.0312 7.875-12.375 1.2188-1.9375-2.25 0.4375-13.656 2.5625-0.53125 0.0937-0.21875 0.53125-5.9688 16.188-0.28125 0.8125 0.71875 0.40625 18.625 10.75 0.3125 0.15625 0.34375-0.0625 32.344-5.5312 28.812 5.5312 0.375 0.0625 0.3125-0.15625 18.75-10.75 0.46875-0.25 0.0312-0.5 1.7188-15.344 0.0625-0.71875-0.625-0.3125-17.125-7.9062-1.875-0.875zm2.9375 3.5625 14.562 6.7188-1.5625 14.156-17.969 10.281-28.656-5.5-0.1875-0.0312-0.15625 0.0312-32.188 5.5-17.594-10.125 5.4688-14.844 10.844-2.0312-6.8438 10.781-0.21875 0.34375 0.0937 0.40625 1.25 5.1875 0.1875 0.71875 0.78125 0.0312 55.812 1.3438h0.15625l0.1875-0.0312 19.188-6.4688 0.875-0.3125-0.21875-0.875-3.8125-15.281z"/>
      <path id="path3603-1-9-4-2-4-2" d="m127.79 271.06c0 7.9896-6.4768 14.466-14.466 14.466-7.9896 0-14.466-6.4768-14.466-14.466 0-7.9896 6.4768-14.466 14.466-14.466 7.9896 0 14.466 6.4768 14.466 14.466z" fill="#729fcf" transform="translate(101.14 43.068)"/>
      <path id="path3603-1-9-4-2-4" style="block-progression:tb;color:#000000;text-transform:none;text-indent:0" d="m214.46 298.16c-8.8002 0-15.969 7.1685-15.969 15.969 0 8.8002 7.1685 15.969 15.969 15.969 8.8002 0 15.969-7.1685 15.969-15.969 0-8.8002-7.1685-15.969-15.969-15.969zm0 3c7.1789 0 12.969 5.7898 12.969 12.969 0 7.1789-5.7898 12.969-12.969 12.969-7.1789 0-12.969-5.7898-12.969-12.969 0-7.1789 5.7898-12.969 12.969-12.969z"/>
    </g>
  </g>
  <metadata>
    <rdf:RDF>
      <cc:Work>
        <dc:format>image/svg+xml</dc:format>
        <dc:type rdf:resource="http://purl.org/dc/dcmitype/StillImage"/>
        <cc:license rdf:resource="http://creativecommons.org/licenses/publicdomain/"/>
        <dc:publisher>
          <cc:Agent rdf:about="http://openclipart.org/">
            <dc:title>Openclipart</dc:title>
          </cc:Agent>
        </dc:publisher>
      </cc:Work>
      <cc:License rdf:about="http://creativecommons.org/licenses/publicdomain/">
        <cc:permits rdf:resource="http://creativecommons.org/ns#Reproduction"/>
        <cc:permits rdf:resource="http://creativecommons.org/ns#Distribution"/>
        <cc:permits rdf:resource="http://creativecommons.org/ns#DerivativeWorks"/>
      </cc:License>
    </rdf:RDF>
  </metadata>
</svg>
